<?xml version="1.0" encoding="UTF-8" standalone="no"?>
<!-- Created with Inkscape (http://www.inkscape.org/) -->

<svg
   xmlns:dc="http://purl.org/dc/elements/1.1/"
   xmlns:cc="http://creativecommons.org/ns#"
   xmlns:rdf="http://www.w3.org/1999/02/22-rdf-syntax-ns#"
   xmlns:svg="http://www.w3.org/2000/svg"
   xmlns="http://www.w3.org/2000/svg"
   xmlns:sodipodi="http://sodipodi.sourceforge.net/DTD/sodipodi-0.dtd"
   xmlns:inkscape="http://www.inkscape.org/namespaces/inkscape"
   width="117.71383"
   height="30.227551"
   id="svg2"
   version="1.1"
   inkscape:version="0.48.4 r9939"
   sodipodi:docname="tab-icons.png">
  <sodipodi:namedview
     id="base"
     pagecolor="#ffffff"
     bordercolor="#666666"
     borderopacity="1.0"
     inkscape:pageopacity="0.0"
     inkscape:pageshadow="2"
     inkscape:zoom="2.2011719"
     inkscape:cx="14.784232"
     inkscape:cy="-96.950642"
     inkscape:document-units="px"
     inkscape:current-layer="svg2"
     showgrid="false"
     inkscape:window-width="1280"
     inkscape:window-height="972"
     inkscape:window-x="-8"
     inkscape:window-y="-8"
     inkscape:window-maximized="1"
     fit-margin-top="2"
     fit-margin-left="2"
     fit-margin-right="2"
     fit-margin-bottom="2" />
  <defs
     id="defs4" />
  <metadata
     id="metadata7">
    <rdf:RDF>
      <cc:Work
         rdf:about="">
        <dc:format>image/svg+xml</dc:format>
        <dc:type
           rdf:resource="http://purl.org/dc/dcmitype/StillImage" />
        <dc:title></dc:title>
      </cc:Work>
    </rdf:RDF>
  </metadata>
  <g
     id="g3018"
     transform="matrix(0.64337992,0,0,0.64337992,-269.61791,-98.483932)">
    <path
       inkscape:connector-curvature="0"
       id="path8650"
       d="m 432.29337,156.85624 0.17491,38.65463"
       style="fill:none;stroke:#000000;stroke-width:1;stroke-linecap:butt;stroke-linejoin:miter;stroke-miterlimit:4;stroke-opacity:1;stroke-dasharray:none" />
    <path
       inkscape:connector-curvature="0"
       id="path8652"
       d="m 451.53323,156.68133 0,39.00444"
       style="fill:none;stroke:#000000;stroke-width:1;stroke-linecap:butt;stroke-linejoin:miter;stroke-miterlimit:4;stroke-opacity:1;stroke-dasharray:none" />
    <path
       inkscape:connector-curvature="0"
       id="path8654"
       d="m 422.67344,185.89094 38.65463,0.1749"
       style="fill:none;stroke:#000000;stroke-width:1;stroke-linecap:butt;stroke-linejoin:miter;stroke-miterlimit:4;stroke-opacity:1;stroke-dasharray:none" />
    <path
       inkscape:connector-curvature="0"
       id="path8648"
       d="m 422.67344,166.47617 38.65463,0"
       style="fill:none;stroke:#000000;stroke-width:1;stroke-linecap:butt;stroke-linejoin:miter;stroke-miterlimit:4;stroke-opacity:1;stroke-dasharray:none" />
    <path
       inkscape:connector-curvature="0"
       id="path8646"
       d="m 441.91331,166.65108 -9.79484,9.61993 9.79484,9.79483 9.79484,-9.96974 z"
       style="fill:none;stroke:#000000;stroke-width:1;stroke-linecap:butt;stroke-linejoin:bevel;stroke-miterlimit:4;stroke-opacity:1;stroke-dasharray:none" />
  </g>
  <g
     inkscape:label="Layer 1"
     inkscape:groupmode="layer"
     id="layer1"
     transform="translate(-420.17343,-154.18133)" />
  <g
     id="g3040"
     transform="matrix(0.64337992,0,0,0.64337992,-269.61791,-98.483932)">
    <path
       style="fill:none;stroke:#000000;stroke-width:1px;stroke-linecap:butt;stroke-linejoin:miter;stroke-opacity:1"
       d="m 515.9952,159.49733 -20.2165,35.66283"
       id="path6047-7"
       inkscape:connector-curvature="0" />
    <path
       style="fill:none;stroke:#000000;stroke-width:1px;stroke-linecap:butt;stroke-linejoin:miter;stroke-opacity:1"
       d="M 495.55155,159.27018 516.22236,194.933"
       id="path6049-4"
       inkscape:connector-curvature="0" />
    <path
       style="fill:#cccccc;stroke:#000000;stroke-width:1px;stroke-linecap:butt;stroke-linejoin:miter;stroke-opacity:0.35449733"
       d="m 485.32972,177.21517 41.11446,-0.22715"
       id="path6051-0"
       inkscape:connector-curvature="0" />
    <circle
       transform="translate(250.22768,-53.084903)"
       sodipodi:ry="2"
       sodipodi:rx="2"
       sodipodi:cy="212.59842"
       sodipodi:cx="245.48752"
       d="m 247.48752,212.59842 c 0,1.10457 -0.89543,2 -2,2 -1.10457,0 -2,-0.89543 -2,-2 0,-1.10457 0.89543,-2 2,-2 1.10457,0 2,0.89543 2,2 z"
       id="circle5452-9"
       cy="212.59842"
       r="2"
       cx="245.48752"
       style="fill:#ff0000" />
    <circle
       transform="translate(250.22768,-53.084903)"
       sodipodi:ry="2"
       sodipodi:rx="2"
       sodipodi:cy="212.59842"
       sodipodi:cx="265.94482"
       d="m 267.94482,212.59842 c 0,1.10457 -0.89543,2 -2,2 -1.10457,0 -2,-0.89543 -2,-2 0,-1.10457 0.89543,-2 2,-2 1.10457,0 2,0.89543 2,2 z"
       id="circle5454-4"
       cy="212.59842"
       r="2"
       cx="265.94482"
       style="fill:#ff0000" />
    <circle
       transform="translate(250.22768,-53.084903)"
       sodipodi:ry="2"
       sodipodi:rx="2"
       sodipodi:cy="230.31496"
       sodipodi:cx="235.25887"
       d="m 237.25887,230.31496 c 0,1.10457 -0.89544,2 -2,2 -1.10457,0 -2,-0.89543 -2,-2 0,-1.10457 0.89543,-2 2,-2 1.10456,0 2,0.89543 2,2 z"
       id="circle5484-8"
       cy="230.31496"
       r="2"
       cx="235.25887"
       style="fill:#ff0000" />
    <circle
       transform="translate(250.22768,-53.084903)"
       sodipodi:ry="2"
       sodipodi:rx="2"
       sodipodi:cy="230.31496"
       sodipodi:cx="255.71616"
       d="m 257.71616,230.31496 c 0,1.10457 -0.89543,2 -2,2 -1.10457,0 -2,-0.89543 -2,-2 0,-1.10457 0.89543,-2 2,-2 1.10457,0 2,0.89543 2,2 z"
       id="circle5486-8"
       cy="230.31496"
       r="2"
       cx="255.71616"
       style="fill:#ff0000" />
    <circle
       transform="translate(250.22768,-53.084903)"
       sodipodi:ry="2"
       sodipodi:rx="2"
       sodipodi:cy="230.31496"
       sodipodi:cx="276.17346"
       d="m 278.17346,230.31496 c 0,1.10457 -0.89543,2 -2,2 -1.10457,0 -2,-0.89543 -2,-2 0,-1.10457 0.89543,-2 2,-2 1.10457,0 2,0.89543 2,2 z"
       id="circle5488-2"
       cy="230.31496"
       r="2"
       cx="276.17346"
       style="fill:#ff0000" />
    <circle
       transform="translate(250.22768,-53.084903)"
       sodipodi:ry="2"
       sodipodi:rx="2"
       sodipodi:cy="248.03149"
       sodipodi:cx="245.48752"
       d="m 247.48752,248.03149 c 0,1.10457 -0.89543,2 -2,2 -1.10457,0 -2,-0.89543 -2,-2 0,-1.10457 0.89543,-2 2,-2 1.10457,0 2,0.89543 2,2 z"
       id="circle5520-4"
       cy="248.03149"
       r="2"
       cx="245.48752"
       style="fill:#ff0000" />
    <circle
       transform="translate(250.22768,-53.084903)"
       sodipodi:ry="2"
       sodipodi:rx="2"
       sodipodi:cy="248.03149"
       sodipodi:cx="265.94482"
       d="m 267.94482,248.03149 c 0,1.10457 -0.89543,2 -2,2 -1.10457,0 -2,-0.89543 -2,-2 0,-1.10457 0.89543,-2 2,-2 1.10457,0 2,0.89543 2,2 z"
       id="circle5522-5"
       cy="248.03149"
       r="2"
       cx="265.94482"
       style="fill:#ff0000" />
  </g>
  <g
     id="g3025"
     transform="matrix(0.64337992,0,0,0.64337992,-269.61791,-98.483932)">
    <path
       inkscape:connector-curvature="0"
       id="path8551"
       d="m 561.22344,158.88255 35.66283,35.66282"
       style="fill:none;stroke:#000000;stroke-width:1px;stroke-linecap:butt;stroke-linejoin:miter;stroke-opacity:0.26984127" />
    <path
       inkscape:connector-curvature="0"
       id="path8553"
       d="M 596.88627,159.1097 561.4506,194.54537"
       style="fill:none;stroke:#000000;stroke-width:1px;stroke-linecap:butt;stroke-linejoin:miter;stroke-opacity:0.26984127" />
    <path
       inkscape:connector-curvature="0"
       id="path8555"
       d="m 561.4506,176.82754 35.66282,-0.45431"
       style="fill:none;stroke:#000000;stroke-width:1px;stroke-linecap:butt;stroke-linejoin:miter;stroke-opacity:1" />
    <path
       inkscape:connector-curvature="0"
       id="path8557"
       d="m 579.16843,158.88255 0,35.66282"
       style="fill:none;stroke:#000000;stroke-width:1px;stroke-linecap:butt;stroke-linejoin:miter;stroke-opacity:1" />
    <circle
       transform="translate(260.02025,-142.28885)"
       sodipodi:ry="2"
       sodipodi:rx="2"
       sodipodi:cy="301.18109"
       sodipodi:cx="301.18109"
       style="fill:#ff0000"
       cx="301.18109"
       r="2"
       cy="301.18109"
       id="circle7893-5"
       d="m 303.18109,301.18109 c 0,1.10457 -0.89543,2 -2,2 -1.10457,0 -2,-0.89543 -2,-2 0,-1.10457 0.89543,-2 2,-2 1.10457,0 2,0.89543 2,2 z" />
    <circle
       transform="translate(260.02025,-142.28885)"
       sodipodi:ry="2"
       sodipodi:rx="2"
       sodipodi:cy="301.18109"
       sodipodi:cx="336.61417"
       style="fill:#ff0000"
       cx="336.61417"
       r="2"
       cy="301.18109"
       id="circle7895-1"
       d="m 338.61417,301.18109 c 0,1.10457 -0.89543,2 -2,2 -1.10457,0 -2,-0.89543 -2,-2 0,-1.10457 0.89543,-2 2,-2 1.10457,0 2,0.89543 2,2 z" />
    <circle
       transform="translate(260.02025,-142.28885)"
       sodipodi:ry="2"
       sodipodi:rx="2"
       sodipodi:cy="318.89764"
       sodipodi:cx="318.89764"
       style="fill:#ff0000"
       cx="318.89764"
       r="2"
       cy="318.89764"
       id="circle7915-7"
       d="m 320.89764,318.89764 c 0,1.10457 -0.89543,2 -2,2 -1.10457,0 -2,-0.89543 -2,-2 0,-1.10457 0.89543,-2 2,-2 1.10457,0 2,0.89543 2,2 z" />
    <circle
       transform="translate(260.02025,-142.28885)"
       sodipodi:ry="2"
       sodipodi:rx="2"
       sodipodi:cy="336.61417"
       sodipodi:cx="301.18109"
       style="fill:#ff0000"
       cx="301.18109"
       r="2"
       cy="336.61417"
       id="circle7933-1"
       d="m 303.18109,336.61417 c 0,1.10457 -0.89543,2 -2,2 -1.10457,0 -2,-0.89543 -2,-2 0,-1.10457 0.89543,-2 2,-2 1.10457,0 2,0.89543 2,2 z" />
    <circle
       transform="translate(260.02025,-142.28885)"
       sodipodi:ry="2"
       sodipodi:rx="2"
       sodipodi:cy="336.61417"
       sodipodi:cx="336.61417"
       style="fill:#ff0000"
       cx="336.61417"
       r="2"
       cy="336.61417"
       id="circle7935-1"
       d="m 338.61417,336.61417 c 0,1.10457 -0.89543,2 -2,2 -1.10457,0 -2,-0.89543 -2,-2 0,-1.10457 0.89543,-2 2,-2 1.10457,0 2,0.89543 2,2 z" />
    <circle
       transform="translate(278.02025,-142.28885)"
       sodipodi:ry="2"
       sodipodi:rx="2"
       sodipodi:cy="301.18109"
       sodipodi:cx="301.18109"
       id="circle8507"
       cy="301.18109"
       r="2"
       cx="301.18109"
       style="fill:#ff0000"
       d="m 303.18109,301.18109 c 0,1.10457 -0.89543,2 -2,2 -1.10457,0 -2,-0.89543 -2,-2 0,-1.10457 0.89543,-2 2,-2 1.10457,0 2,0.89543 2,2 z" />
    <circle
       transform="translate(278.02025,-142.28885)"
       sodipodi:ry="2"
       sodipodi:rx="2"
       sodipodi:cy="318.89764"
       sodipodi:cx="283.46457"
       id="circle8527"
       cy="318.89764"
       r="2"
       cx="283.46457"
       style="fill:#ff0000"
       d="m 285.46457,318.89764 c 0,1.10457 -0.89543,2 -2,2 -1.10457,0 -2,-0.89543 -2,-2 0,-1.10457 0.89543,-2 2,-2 1.10457,0 2,0.89543 2,2 z" />
    <circle
       transform="translate(278.02025,-142.28885)"
       sodipodi:ry="2"
       sodipodi:rx="2"
       sodipodi:cy="318.89764"
       sodipodi:cx="318.89764"
       id="circle8529"
       cy="318.89764"
       r="2"
       cx="318.89764"
       style="fill:#ff0000"
       d="m 320.89764,318.89764 c 0,1.10457 -0.89543,2 -2,2 -1.10457,0 -2,-0.89543 -2,-2 0,-1.10457 0.89543,-2 2,-2 1.10457,0 2,0.89543 2,2 z" />
    <circle
       transform="translate(278.02025,-142.28885)"
       sodipodi:ry="2"
       sodipodi:rx="2"
       sodipodi:cy="336.61417"
       sodipodi:cx="301.18109"
       id="circle8547"
       cy="336.61417"
       r="2"
       cx="301.18109"
       style="fill:#ff0000"
       d="m 303.18109,336.61417 c 0,1.10457 -0.89543,2 -2,2 -1.10457,0 -2,-0.89543 -2,-2 0,-1.10457 0.89543,-2 2,-2 1.10457,0 2,0.89543 2,2 z" />
  </g>
</svg>
